<?xml version="1.0" encoding="UTF-8" standalone="no"?>
<!-- Created with Inkscape (http://www.inkscape.org/) -->

<svg
   xmlns:osb="http://www.openswatchbook.org/uri/2009/osb"
   xmlns:dc="http://purl.org/dc/elements/1.1/"
   xmlns:cc="http://creativecommons.org/ns#"
   xmlns:rdf="http://www.w3.org/1999/02/22-rdf-syntax-ns#"
   xmlns:svg="http://www.w3.org/2000/svg"
   xmlns="http://www.w3.org/2000/svg"
   xmlns:xlink="http://www.w3.org/1999/xlink"
   xmlns:sodipodi="http://sodipodi.sourceforge.net/DTD/sodipodi-0.dtd"
   xmlns:inkscape="http://www.inkscape.org/namespaces/inkscape"
   width="181.83176mm"
   height="59.871441mm"
   viewBox="0 0 644.28575 212.1429"
   id="svg2"
   version="1.1"
   inkscape:version="0.91 r13725"
   sodipodi:docname="logo.svg"
   inkscape:export-filename="C:\Users\Daniel\Desktop\eRoads\other\logo.png"
   inkscape:export-xdpi="90"
   inkscape:export-ydpi="90">
  <defs
     id="defs4">
    <linearGradient
       inkscape:collect="always"
       id="linearGradient5854">
      <stop
         style="stop-color:#000000;stop-opacity:1"
         offset="0"
         id="stop5856" />
      <stop
         style="stop-color:#2e3436;stop-opacity:1"
         offset="1"
         id="stop5858" />
    </linearGradient>
    <linearGradient
       inkscape:collect="always"
       id="linearGradient5801"
       osb:paint="gradient">
      <stop
         id="stop5805"
         offset="0"
         style="stop-color:#ffffff;stop-opacity:1;" />
      <stop
         style="stop-color:#e7b25f;stop-opacity:0.49803922"
         offset="0"
         id="stop5825" />
      <stop
         id="stop5803"
         offset="1"
         style="stop-color:#e9b96e;stop-opacity:1;" />
    </linearGradient>
    <radialGradient
       inkscape:collect="always"
       xlink:href="#linearGradient5801"
       id="radialGradient5823"
       cx="343.5714"
       cy="708.43366"
       fx="343.5714"
       fy="708.43366"
       r="325.35712"
       gradientTransform="matrix(1,0,0,0.33809006,0,468.91928)"
       gradientUnits="userSpaceOnUse" />
    <radialGradient
       inkscape:collect="always"
       xlink:href="#linearGradient5854"
       id="radialGradient5860"
       cx="345.97098"
       cy="690.00451"
       fx="345.97098"
       fy="690.00451"
       r="293.20313"
       gradientTransform="matrix(1,0,0,0.25652811,0,512.99896)"
       gradientUnits="userSpaceOnUse" />
  </defs>
  <sodipodi:namedview
     id="base"
     pagecolor="#ffffff"
     bordercolor="#666666"
     borderopacity="1.0"
     inkscape:pageopacity="0.0"
     inkscape:pageshadow="2"
     inkscape:zoom="1.4"
     inkscape:cx="426.58294"
     inkscape:cy="84.699283"
     inkscape:document-units="px"
     inkscape:current-layer="layer1"
     showgrid="false"
     fit-margin-top="0"
     fit-margin-left="0"
     fit-margin-right="0"
     fit-margin-bottom="0"
     inkscape:window-width="1920"
     inkscape:window-height="1001"
     inkscape:window-x="-9"
     inkscape:window-y="-9"
     inkscape:window-maximized="1"
     showguides="false" />
  <metadata
     id="metadata7">
    <rdf:RDF>
      <cc:Work
         rdf:about="">
        <dc:format>image/svg+xml</dc:format>
        <dc:type
           rdf:resource="http://purl.org/dc/dcmitype/StillImage" />
        <dc:title></dc:title>
      </cc:Work>
    </rdf:RDF>
  </metadata>
  <g
     inkscape:label="Layer 1"
     inkscape:groupmode="layer"
     id="layer1"
     transform="translate(-21.071428,-602.00507)">
    <rect
       style="opacity:1;fill:url(#radialGradient5823);fill-opacity:1;stroke:none;stroke-width:5;stroke-linejoin:miter;stroke-miterlimit:4;stroke-dasharray:15, 5;stroke-dashoffset:0;stroke-opacity:1"
       id="rect4321"
       width="650.71423"
       height="220.00002"
       x="18.214285"
       y="598.43365" />
    <text
       xml:space="preserve"
       style="font-style:normal;font-weight:normal;font-size:40px;line-height:125%;font-family:sans-serif;letter-spacing:0px;word-spacing:0px;fill:#000000;fill-opacity:1;stroke:none;stroke-width:1px;stroke-linecap:butt;stroke-linejoin:miter;stroke-opacity:1"
       x="221.42857"
       y="683.79077"
       id="text4136"
       sodipodi:linespacing="125%"><tspan
         sodipodi:role="line"
         id="tspan4138"
         x="221.42857"
         y="683.79077" /></text>
    <g
       style="font-style:normal;font-weight:normal;font-size:180px;line-height:125%;font-family:sans-serif;letter-spacing:0px;word-spacing:0px;fill:url(#radialGradient5860);fill-opacity:1;stroke:none;stroke-width:1px;stroke-linecap:butt;stroke-linejoin:miter;stroke-opacity:1"
       id="text4142">
      <path
         d="m 123.78348,731.1178 -17.92969,0 -18.984371,-28.30078 50.976561,0 0,14.23828 q 0,5.80078 -4.21875,10.01953 -4.04297,4.04297 -9.84375,4.04297 z m 0.87891,34.10156 -57.656252,0 q -5.800781,0 -10.019531,-4.21875 -4.21875,-4.21875 -4.21875,-10.01953 l 0,-68.02734 q 0,-5.625 4.21875,-9.84375 4.21875,-4.21875 10.019531,-4.21875 l 56.777342,0 q 5.80078,0 9.84375,4.21875 4.21875,4.04296 4.21875,9.84375 l 0,14.23828 -56.601561,0 0,39.72656 62.402341,0 -18.98437,28.30078 z"
         style="font-style:normal;font-variant:normal;font-weight:100;font-stretch:normal;font-family:'AR DESTINE';-inkscape-font-specification:'AR DESTINE Thin';fill-opacity:1;fill:url(#radialGradient5860)"
         id="path4147"
         inkscape:connector-curvature="0" />
      <path
         d="m 220.11161,765.21936 -22.14844,-34.10156 -14.58984,0 0,34.10156 -28.30079,0 0,-79.45312 28.30079,0 0,17.05078 34.10156,0 0,-22.67578 -62.40235,0 0,-28.30079 76.64063,0 q 4.21875,0 9.14062,4.92188 4.92188,4.92187 4.92188,9.14062 l 0,51.15235 q 0,5.27344 -4.39453,9.66797 -4.39453,4.39453 -9.66797,4.39453 l 21.97266,34.10156 -33.57422,0 z"
         style="font-style:normal;font-variant:normal;font-weight:100;font-stretch:normal;font-family:'AR DESTINE';-inkscape-font-specification:'AR DESTINE Thin';fill-opacity:1;fill:url(#radialGradient5860)"
         id="path4149"
         inkscape:connector-curvature="0" />
      <path
         d="m 259.48661,697.19202 0,-14.23828 q 0,-5.625 4.21875,-9.84375 4.21875,-4.21875 10.01953,-4.21875 l 56.60156,0 q 5.97656,0 10.01953,4.21875 4.21875,4.04296 4.21875,9.84375 l 0,14.23828 -85.07812,0 z m 70.83984,68.02734 -56.60156,0 q -5.80078,0 -10.01953,-4.21875 -4.21875,-4.21875 -4.21875,-10.01953 l 0,-48.16406 28.47656,0 0,34.10156 28.30078,0 0,-34.10156 28.30078,0 0,48.16406 q 0,5.80078 -4.21875,10.01953 -4.21875,4.21875 -10.01953,4.21875 z"
         style="font-style:normal;font-variant:normal;font-weight:100;font-stretch:normal;font-family:'AR DESTINE';-inkscape-font-specification:'AR DESTINE Thin';fill-opacity:1;fill:url(#radialGradient5860)"
         id="path4151"
         inkscape:connector-curvature="0" />
      <path
         d="m 355.81473,697.19202 18.98438,-28.30078 51.85547,0 q 5.97656,0 10.01953,4.21875 4.21875,4.04296 4.21875,9.84375 l 0,14.23828 -85.07813,0 z m 14.23828,68.02734 q -5.80078,0 -10.01953,-4.21875 -4.21875,-4.21875 -4.21875,-10.01953 l 0,-33.92578 q 0,-5.80078 4.21875,-10.01953 4.21875,-4.21875 10.01953,-4.21875 l 17.92969,0 18.98438,28.30078 -22.67579,0 0,5.80078 28.30079,0 0,-34.10156 28.30078,0 0,62.40234 -70.83985,0 z"
         style="font-style:normal;font-variant:normal;font-weight:100;font-stretch:normal;font-family:'AR DESTINE';-inkscape-font-specification:'AR DESTINE Thin';fill-opacity:1;fill:url(#radialGradient5860)"
         id="path4153"
         inkscape:connector-curvature="0" />
      <path
         d="m 452.14286,697.19202 0,-14.23828 c 0,-3.75 1.40625,-7.03125 4.21875,-9.84375 2.8125,-2.8125 6.15234,-4.21875 10.01953,-4.21875 l 42.53906,0 0,-34.10157 28.30078,-20 0,82.40235 z m 14.23828,68.02734 c -3.86719,0 -7.20703,-1.40625 -10.01953,-4.21875 -2.8125,-2.8125 -4.21875,-6.15234 -4.21875,-10.01953 l 0,-48.16406 28.47656,0 0,34.10156 28.30078,0 0,-34.10156 28.30078,0 0,62.40234 z"
         style="font-style:normal;font-variant:normal;font-weight:100;font-stretch:normal;font-family:'AR DESTINE';-inkscape-font-specification:'AR DESTINE Thin';fill-opacity:1;fill:url(#radialGradient5860)"
         id="path4155"
         inkscape:connector-curvature="0"
         sodipodi:nodetypes="cssscccccssscccccccs" />
      <path
         d="m 554.09598,697.19202 0,-14.23828 q 0,-5.625 4.21875,-9.84375 4.21875,-4.21875 10.01953,-4.21875 l 51.85547,0 18.98438,28.30078 -85.07813,0 z m 71.01563,68.02734 -57.65625,0 -18.98438,-28.30078 48.51563,0 -36.5625,-34.10156 40.78125,0 q 13.71093,11.77734 27.42187,23.3789 10.54688,10.54688 10.54688,16.34766 l 0,8.4375 q 0,5.27344 -4.57032,9.84375 -4.39453,4.39453 -9.49218,4.39453 z"
         style="font-style:normal;font-variant:normal;font-weight:100;font-stretch:normal;font-family:'AR DESTINE';-inkscape-font-specification:'AR DESTINE Thin';fill-opacity:1;fill:url(#radialGradient5860)"
         id="path4157"
         inkscape:connector-curvature="0" />
    </g>
    <rect
       style="fill:#75507b;fill-opacity:1;stroke:none;stroke-width:5;stroke-linejoin:miter;stroke-miterlimit:4;stroke-dasharray:40, 5;stroke-dashoffset:0;stroke-opacity:1"
       id="rect4159"
       width="602.50177"
       height="10"
       x="45"
       y="772.36218" />
    <rect
       style="fill:#ad7fa8;fill-opacity:1;stroke:none;stroke-width:5;stroke-linejoin:miter;stroke-miterlimit:4;stroke-dasharray:40, 5;stroke-dashoffset:0;stroke-opacity:1"
       id="rect4193"
       width="30"
       height="30"
       x="45"
       y="772.36218" />
    <path
       style="fill:none;fill-rule:evenodd;stroke:#eeeeec;stroke-width:5;stroke-linecap:butt;stroke-linejoin:miter;stroke-miterlimit:4;stroke-dasharray:15, 5;stroke-dashoffset:0;stroke-opacity:1"
       d="m 571.74634,750.05611 45.45687,0 c 6.86676,-0.69715 8.01922,-4.96572 6.13598,-8.34144 l -36.65589,-34.6916"
       id="path4303"
       inkscape:connector-curvature="0"
       sodipodi:nodetypes="cccc" />
    <path
       style="fill:none;fill-rule:evenodd;stroke:#eeeeec;stroke-width:5;stroke-linecap:butt;stroke-linejoin:miter;stroke-miterlimit:4;stroke-dasharray:15, 5;stroke-dashoffset:0;stroke-opacity:1"
       d="m 564.28572,684.68363 56.24999,0"
       id="path4305"
       inkscape:connector-curvature="0"
       sodipodi:nodetypes="cc" />
    <rect
       style="opacity:0.53800001;fill:none;fill-opacity:1;stroke:#000000;stroke-width:5;stroke-linejoin:miter;stroke-miterlimit:4;stroke-dasharray:15, 5;stroke-dashoffset:0;stroke-opacity:1"
       id="rect4311"
       width="639.28577"
       height="207.1429"
       x="23.571428"
       y="604.50507" />
  </g>
</svg>
